<svg xmlns="http://www.w3.org/2000/svg" width="256" height="256" viewBox="0 0 100 100"><rect width="100" height="100" rx="50" fill="#000000"></rect><path fill="#fff" d="M43.70 52.48L43.70 70.75Q43.70 73.63 44.15 75.06Q44.60 76.51 45.81 77.05Q47.03 77.59 49.46 77.59L49.46 77.59L59.18 77.59Q62.42 77.59 64.22 76.91Q66.02 76.23 67.06 74.57Q68.09 72.91 68.99 69.58L68.99 69.58L69.53 67.51L72.59 68.59L72.59 83.98L70.79 84.97L70.07 83.98Q69.08 82.72 66.29 82.72L66.29 82.72L28.40 82.72L27.41 79.84L29.30 79.30Q32.63 78.31 33.71 76.78Q34.79 75.25 34.79 71.38L34.79 71.38L34.79 36.19Q34.79 30.79 33.89 27.46Q32.99 24.13 30.74 21.16L30.74 21.16L29.57 19.54L30.74 18.09L58.28 18.09Q66.02 18.09 68.54 16.21L68.54 16.21L70.16 15.04L71.60 16.21L71.60 32.23L68.54 33.31L68 31.24Q67.10 27.91 66.06 26.24Q65.03 24.58 63.23 23.90Q61.43 23.23 58.19 23.23L58.19 23.23L49.46 23.23Q47.03 23.23 45.81 23.77Q44.60 24.31 44.15 25.75Q43.70 27.19 43.70 30.07L43.70 30.07L43.70 47.35L55.13 47.35Q57.29 47.35 58.95 46.40Q60.62 45.46 62.24 43.21L62.24 43.21L62.96 42.22L64.76 43.21L64.76 58.60L61.70 59.68L61.16 57.61Q60.35 54.55 58.32 53.51Q56.30 52.48 51.35 52.48L51.35 52.48L43.70 52.48Z"></path></svg>
